<?xml version="1.0" standalone="no"?><!DOCTYPE svg PUBLIC "-//W3C//DTD SVG 1.1//EN" "http://www.w3.org/Graphics/SVG/1.1/DTD/svg11.dtd"><svg t="1752425850853" class="icon" viewBox="0 0 1121 1024" version="1.1" xmlns="http://www.w3.org/2000/svg" p-id="25043" data-spm-anchor-id="a313x.search_index.0.i4.411c3a81oQLL8A" xmlns:xlink="http://www.w3.org/1999/xlink" width="218.9453125" height="200"><path d="M1079.16683 631.553532H42.670477a18.287347 18.287347 0 0 1-18.287348-18.287348V786.508319a18.287347 18.287347 0 0 0 18.287348 18.287347h1036.496353a18.287347 18.287347 0 0 0 18.287347-18.287347V613.266184a18.287347 18.287347 0 0 1-18.287347 18.287348z" fill="#1296db" p-id="25044" data-spm-anchor-id="a313x.search_index.0.i3.411c3a81oQLL8A" class="selected"></path><path d="M1079.16683 829.178796H42.670477a42.670477 42.670477 0 0 1-42.670477-42.670477V42.670477A42.670477 42.670477 0 0 1 42.670477 0h1036.496353a42.670477 42.670477 0 0 1 42.670477 42.670477v743.837842a42.670477 42.670477 0 0 1-42.670477 42.670477zM48.766259 780.412537h1024.304789V48.766259H48.766259z" fill="#333333" p-id="25045"></path><path d="M1079.16683 655.936661H42.670477a42.670477 42.670477 0 0 1-42.670477-42.670477V42.670477A42.670477 42.670477 0 0 1 42.670477 0h1036.496353a42.670477 42.670477 0 0 1 42.670477 42.670477v570.595707a42.670477 42.670477 0 0 1-42.670477 42.670477zM48.766259 607.170402h1024.304789V48.766259H48.766259zM536.535524 804.795666h48.766259v194.821205h-48.766259z" fill="#333333" p-id="25046"></path><path d="M853.577165 1024H268.214424a24.383129 24.383129 0 1 1 0-48.766259h585.362741a24.383129 24.383129 0 1 1 0 48.766259z" fill="#333333" p-id="25047"></path></svg>