<?xml version="1.0" standalone="no"?><!DOCTYPE svg PUBLIC "-//W3C//DTD SVG 1.1//EN" "http://www.w3.org/Graphics/SVG/1.1/DTD/svg11.dtd"><svg t="1752427663177" class="icon" viewBox="0 0 1052 1024" version="1.1" xmlns="http://www.w3.org/2000/svg" p-id="38585" xmlns:xlink="http://www.w3.org/1999/xlink" width="205.46875" height="200"><path d="M302.08 187.619556c0-17.066667 13.880889-30.947556 30.947556-30.947556 17.066667 0 30.947556 13.880889 30.947555 30.947556 0 17.066667-13.880889 30.976-30.947555 30.976a30.890667 30.890667 0 0 1-30.976-30.976z m15.274667 0a15.758222 15.758222 0 1 0 31.488 0.056888 15.758222 15.758222 0 0 0-31.488-0.056888zM835.299556 268.145778h13.596444v-13.596445a6.542222 6.542222 0 1 1 13.084444 0v13.596445h13.624889a6.542222 6.542222 0 1 1 0 13.084444h-13.596444v13.624889a6.542222 6.542222 0 1 1-13.084445 0v-13.596444h-13.624888a6.599111 6.599111 0 0 1-6.542223-6.542223c0-3.584 2.986667-6.570667 6.542223-6.570666zM86.499556 391.822222h13.596444v-13.624889a6.542222 6.542222 0 1 1 13.084444 0v13.624889h13.596445a6.542222 6.542222 0 1 1 0 13.084445H113.208889v13.596444a6.542222 6.542222 0 1 1-13.084445 0v-13.596444H86.471111a6.599111 6.599111 0 0 1-6.542222-6.542223c0-3.584 2.958222-6.542222 6.542222-6.542222z" fill="#FFFFFF" p-id="38586"></path><path d="M913.806222 593.436444h15.786667v-15.786666a7.651556 7.651556 0 0 1 15.274667 0v15.786666h15.786666a7.651556 7.651556 0 0 1 0 15.274667h-15.786666v15.786667a7.651556 7.651556 0 0 1-15.274667 0V608.711111h-15.786667a7.651556 7.651556 0 0 1 0-15.274667zM720.782222 199.196444a11.406222 11.406222 0 1 0 22.812445 0 11.406222 11.406222 0 0 0-22.812445 0zM205.880889 259.498667a15.274667 15.274667 0 1 0 30.577778 0 15.274667 15.274667 0 0 0-30.577778 0z" fill="#FAEFB8" p-id="38587"></path><path d="M807.452444 367.843556a15.274667 15.274667 0 1 0 30.549334 0 15.274667 15.274667 0 0 0-30.549334 0z" fill="#FFFFFF" p-id="38588"></path><path d="M792.291556 507.306667c0-17.066667 13.880889-30.976 30.947555-30.976a31.004444 31.004444 0 0 1 0 61.923555 31.004444 31.004444 0 0 1-30.947555-30.947555z m15.274666 0a15.758222 15.758222 0 1 0 31.516445 0.028444 15.758222 15.758222 0 0 0-31.516445-0.028444z" fill="#FAEFB8" p-id="38589"></path><path d="M219.022222 509.155556c1.678222-1.649778 4.352-1.649778 5.944889 0a4.209778 4.209778 0 0 1 1.194667 3.015111 4.209778 4.209778 0 0 1-1.194667 2.958222l-13.511111 13.511111a4.209778 4.209778 0 0 1-2.958222 1.194667 4.209778 4.209778 0 0 1-2.986667-1.194667 4.124444 4.124444 0 0 1 0-5.973333l13.482667-13.482667z m-35.84 35.754666a4.209778 4.209778 0 0 1 2.958222-1.194666c1.109333 0 2.190222 0.398222 2.986667 1.194666 1.706667 1.706667 1.706667 4.352 0 5.973334l-13.482667 13.482666a4.209778 4.209778 0 0 1-2.986666 1.194667 4.209778 4.209778 0 0 1-2.986667-1.194667 4.209778 4.209778 0 0 1-1.194667-2.986666c0-1.080889 0.398222-2.190222 1.194667-2.986667l13.511111-13.482667z m3.072-14.990222a4.209778 4.209778 0 0 1-2.986666-1.194667l-13.482667-13.482666a4.209778 4.209778 0 0 1-1.194667-2.986667c0-1.080889 0.398222-2.190222 1.194667-2.986667 1.706667-1.678222 4.352-1.678222 5.973333 0l13.482667 13.511111c1.678222 1.706667 1.678222 4.352 0 5.973334a4.693333 4.693333 0 0 1-2.986667 1.166222z m25.116445 14.990222l13.482666 13.482667a4.209778 4.209778 0 0 1 1.194667 2.986667 4.209778 4.209778 0 0 1-1.194667 2.986666 4.209778 4.209778 0 0 1-2.958222 1.194667 4.209778 4.209778 0 0 1-2.986667-1.194667l-13.511111-13.511111a4.124444 4.124444 0 0 1 0-5.973333 4.323556 4.323556 0 0 1 5.973334 0z m-2.588445-8.135111c0-2.275556 1.877333-4.266667 4.181334-4.266667h19.143111c2.275556 0 4.152889 1.877333 4.152889 4.266667a4.124444 4.124444 0 0 1-4.152889 4.152889h-19.143111a4.181333 4.181333 0 0 1-4.181334-4.152889z m-46.364444-4.266667h19.171555c2.275556 0 4.266667 1.877333 4.266667 4.266667a4.152889 4.152889 0 0 1-4.266667 4.152889h-19.143111a4.266667 4.266667 0 0 1-4.266666-4.152889c0-2.275556 1.991111-4.266667 4.266666-4.266667z m34.844444-34.844444c2.275556 0 4.266667 1.877333 4.266667 4.181333v19.143111c0 2.275556-1.877333 4.181333-4.266667 4.181334a4.124444 4.124444 0 0 1-4.152889-4.181334v-19.057777c0-2.389333 1.877333-4.266667 4.152889-4.266667z m0 50.631111c2.275556 0 4.266667 1.877333 4.266667 4.266667v19.143111c0 2.275556-1.877333 4.266667-4.266667 4.266667a4.152889 4.152889 0 0 1-4.152889-4.266667v-19.143111c0-2.389333 1.877333-4.266667 4.152889-4.266667z" fill="#FFFFFF" p-id="38590"></path><path d="M566.471111 96.512c1.678222-1.678222 4.352-1.678222 5.944889 0a4.209778 4.209778 0 0 1 1.194667 2.986667 4.209778 4.209778 0 0 1-1.194667 2.986666l-13.482667 13.482667a4.209778 4.209778 0 0 1-2.986666 1.194667 4.209778 4.209778 0 0 1-2.986667-1.194667 4.124444 4.124444 0 0 1 0-5.944889l13.511111-13.511111zM530.744889 132.266667a4.209778 4.209778 0 0 1 2.958222-1.194667c1.109333 0 2.190222 0.398222 2.986667 1.194667 1.706667 1.678222 1.706667 4.352 0 5.944889l-13.511111 13.482666a4.209778 4.209778 0 0 1-2.958223 1.194667 4.209778 4.209778 0 0 1-2.986666-1.194667 4.209778 4.209778 0 0 1-1.194667-2.958222c0-1.109333 0.398222-2.190222 1.194667-2.986667l13.511111-13.482666z m2.958222-14.990223a4.209778 4.209778 0 0 1-2.958222-1.194666l-13.511111-13.511111a4.209778 4.209778 0 0 1-1.194667-2.958223c0-1.109333 0.398222-2.190222 1.194667-2.986666 1.706667-1.706667 4.380444-1.706667 5.973333 0l13.482667 13.482666c1.706667 1.706667 1.706667 4.380444 0 5.973334a4.209778 4.209778 0 0 1-2.986667 1.194666z m25.201778 14.990223l13.511111 13.482666a4.209778 4.209778 0 0 1 1.194667 2.986667 4.209778 4.209778 0 0 1-1.194667 2.958222 4.209778 4.209778 0 0 1-2.986667 1.194667 4.209778 4.209778 0 0 1-2.958222-1.194667l-13.511111-13.482666a4.124444 4.124444 0 0 1 0-5.973334 4.323556 4.323556 0 0 1 5.973333 0z m-2.56-8.049778c0-2.275556 1.877333-4.266667 4.152889-4.266667h19.171555c2.275556 0 4.152889 1.877333 4.152889 4.266667a4.124444 4.124444 0 0 1-4.152889 4.152889h-19.171555a4.181333 4.181333 0 0 1-4.152889-4.152889z m-46.364445-4.266667h19.171556c2.275556 0 4.266667 1.877333 4.266667 4.266667a4.152889 4.152889 0 0 1-4.266667 4.152889h-19.171556a4.266667 4.266667 0 0 1-4.266666-4.152889c0-2.275556 1.905778-4.266667 4.266666-4.266667z m34.844445-34.844444c2.275556 0 4.266667 1.877333 4.266667 4.181333v19.143111c0 2.275556-1.877333 4.181333-4.266667 4.181334a4.124444 4.124444 0 0 1-4.152889-4.181334v-19.057778a4.096 4.096 0 0 1 4.152889-4.266666z m0 50.517333c2.275556 0 4.266667 1.877333 4.266667 4.266667v19.171555c0 2.275556-1.877333 4.266667-4.266667 4.266667a4.152889 4.152889 0 0 1-4.152889-4.266667v-19.171555a4.096 4.096 0 0 1 4.152889-4.266667z" fill="#FAEFB8" p-id="38591"></path><path d="M787.683556 850.488889h-500.906667a27.676444 27.676444 0 0 1-27.392-27.875556l68.494222-119.011555v-190.037334c0-117.134222 94.151111-212.906667 209.294222-212.906666s209.322667 95.772444 209.322667 212.906666v190.037334l68.465778 119.011555c0.113778 15.36-12.202667 27.875556-27.306667 27.875556z" fill="#FFAC4A" p-id="38592"></path><path d="M459.377778 277.987556c0-33.336889 27.107556-60.444444 60.444444-60.444445 33.365333 0 60.444444 27.107556 60.444445 60.444445" fill="#FAEFB8" p-id="38593"></path><path d="M580.266667 289.479111a11.406222 11.406222 0 0 1-11.434667-11.377778c0-27.022222-22.044444-49.038222-49.038222-49.038222s-49.038222 22.016-49.038222 49.009778a11.406222 11.406222 0 0 1-22.812445 0 71.964444 71.964444 0 0 1 71.850667-71.850667A71.907556 71.907556 0 0 1 591.644444 278.072889a11.377778 11.377778 0 0 1-11.377777 11.406222z" fill="#000000" p-id="38594"></path><path d="M605.269333 849.550222a85.560889 85.560889 0 0 1-171.093333 0" fill="#FAEFB8" p-id="38595"></path><path d="M519.793778 946.602667a97.052444 97.052444 0 0 1-96.967111-96.967111 11.406222 11.406222 0 0 1 22.840889 0 74.097778 74.097778 0 0 0 74.040888 74.040888 74.097778 74.097778 0 0 0 74.012445-74.040888 11.406222 11.406222 0 0 1 22.840889 0 96.796444 96.796444 0 0 1-96.768 96.967111z" fill="#3E3A39" p-id="38596"></path><path d="M753.038222 505.884444c0-84.935111-58.453333-157.098667-143.075555-190.435555 60.586667 67.072 77.084444 168.220444 74.894222 236.885333l-4.465778 144.128c-0.199111 7.822222 2.503111 15.559111 7.736889 21.418667l42.894222 48.839111a31.004444 31.004444 0 0 1-19.057778 51.2l-179.256888 24.917333h262.229333c15.274667 0 27.875556-12.515556 27.875555-27.875555l-69.688888-119.011556v-190.037333h-0.085334z" fill="#DD382D" p-id="38597"></path><path d="M333.624889 385.137778a12.458667 12.458667 0 0 1-4.551111-0.881778 11.52 11.52 0 0 1-5.973334-15.075556c4.949333-11.434667 12.600889-21.646222 22.328889-29.496888a11.463111 11.463111 0 0 1 16.071111 1.592888c3.982222 4.835556 3.271111 12.117333-1.592888 16.071112a55.182222 55.182222 0 0 0-15.786667 20.849777 11.406222 11.406222 0 0 1-10.524445 6.940445z" fill="#000000" p-id="38598"></path><path d="M786.005333 862.008889H253.639111a40.647111 40.647111 0 0 1-40.590222-40.590222c0-1.991111 0.512-4.067556 1.592889-5.774223l71.253333-121.656888V498.346667c0-32.056889 6.456889-63.146667 19.057778-92.416a11.434667 11.434667 0 1 1 21.048889 9.045333 208.554667 208.554667 0 0 0-17.265778 83.256889v198.712889c0 1.991111-0.512 4.067556-1.592889 5.745778l-70.968889 121.287111a17.720889 17.720889 0 0 0 17.464889 14.961777h532.366222a17.635556 17.635556 0 0 0 17.464889-14.961777l-70.968889-121.287111a11.946667 11.946667 0 0 1-1.564444-5.745778V498.346667c0-116.423111-94.72-211.114667-211.114667-211.114667-48.241778 0-95.573333 16.896-133.091555 47.559111a11.463111 11.463111 0 0 1-16.071111-1.592889 11.463111 11.463111 0 0 1 1.592888-16.071111 233.927111 233.927111 0 0 1 147.569778-52.707555c129.024 0 233.927111 104.903111 233.927111 233.927111v195.612444l71.253334 121.656889a11.946667 11.946667 0 0 1 1.592889 5.774222 40.704 40.704 0 0 1-40.590223 40.590222z" fill="#000000" p-id="38599"></path><path d="M367.957333 657.464889a11.406222 11.406222 0 0 1-11.377777-11.434667V506.311111a11.406222 11.406222 0 0 1 22.812444 0v139.719111c0 6.257778-5.063111 11.434667-11.434667 11.434667zM370.232889 478.72c-0.796444 0-1.479111-0.113778-2.275556-0.199111a11.434667 11.434667 0 0 1-8.931555-13.511111c4.266667-21.532444 9.528889-34.929778 15.473778-39.594667a11.463111 11.463111 0 0 1 14.990222 17.265778c-2.076444 3.185778-5.745778 15.473778-8.049778 26.908444a11.463111 11.463111 0 0 1-11.207111 9.102223z" fill="#FFFFFF" p-id="38600"></path></svg>